<?xml version="1.0" standalone="no"?>
<!DOCTYPE svg PUBLIC "-//W3C//DTD SVG 20010904//EN"
 "http://www.w3.org/TR/2001/REC-SVG-20010904/DTD/svg10.dtd">
<svg version="1.0" xmlns="http://www.w3.org/2000/svg"
 width="256.000000pt" height="256.000000pt" viewBox="0 0 256.000000 256.000000"
 preserveAspectRatio="xMidYMid meet">
<metadata>
Created by potrace 1.11, written by Peter Selinger 2001-2013
</metadata>
<g transform="translate(0.000000,256.000000) scale(0.100000,-0.100000)"
fill="#000000" stroke="none">
<path d="M735 2226 l-540 -313 0 -633 0 -633 542 -313 543 -314 543 314 542
313 0 633 0 633 -535 309 c-294 171 -539 311 -545 313 -5 2 -253 -137 -550
-309z m1045 -94 l485 -280 0 -572 0 -572 -492 -285 -493 -284 -492 284 -493
284 0 573 0 572 490 284 c270 156 495 282 500 280 6 -2 228 -130 495 -284z"/>
<path d="M1080 2140 c-93 -24 -241 -96 -297 -145 -35 -30 -43 -43 -43 -71 0
-21 8 -42 20 -54 33 -33 74 -25 156 30 112 74 210 103 354 104 101 1 126 -2
204 -28 55 -18 118 -48 162 -78 80 -53 121 -61 154 -28 12 12 20 33 20 55 0
30 -7 40 -52 76 -69 55 -193 114 -292 139 -106 27 -281 27 -386 0z"/>
<path d="M1143 1855 c-59 -16 -136 -53 -173 -83 -33 -27 -34 -87 -1 -113 34
-27 64 -24 149 19 69 33 83 37 156 37 73 0 89 -4 160 -38 104 -49 134 -49 162
4 24 47 0 88 -73 127 -114 60 -262 79 -380 47z"/>
<path d="M1005 1485 l-25 -24 0 -464 c0 -455 0 -465 21 -491 l20 -26 250 0
250 0 24 25 25 24 0 466 0 466 -25 24 -24 25 -246 0 -246 0 -24 -25z m342
-155 c39 -23 59 -54 68 -100 13 -72 -63 -160 -138 -160 -74 0 -140 69 -140
145 0 104 120 170 210 115z"/>
</g>
</svg>
